<?xml version="1.0" standalone="no"?>
<!DOCTYPE svg PUBLIC "-//W3C//DTD SVG 1.1//EN" "http://www.w3.org/Graphics/SVG/1.1/DTD/svg11.dtd">
<svg version="1.1" xmlns="http://www.w3.org/2000/svg" viewBox="0 0 501.7063783787911 126.85564832501245" width="501.7063783787911" height="126.85564832501245"><!-- svg-source:excalidraw --><metadata></metadata><defs><style class="style-fonts">
      </style></defs><g stroke-linecap="round" transform="translate(10 66.90252429810039) rotate(0 38.65625 11.4765625)"><path d="M77.31 11.48 C77.31 12.14, 77.11 12.82, 76.73 13.47 C76.34 14.12, 75.75 14.78, 74.98 15.4 C74.22 16.03, 73.25 16.64, 72.13 17.21 C71.01 17.79, 69.71 18.34, 68.27 18.85 C66.83 19.36, 65.22 19.84, 63.5 20.27 C61.79 20.7, 59.92 21.08, 57.98 21.42 C56.05 21.75, 53.98 22.03, 51.88 22.26 C49.77 22.49, 47.57 22.66, 45.37 22.78 C43.17 22.89, 40.89 22.95, 38.66 22.95 C36.42 22.95, 34.15 22.89, 31.94 22.78 C29.74 22.66, 27.54 22.49, 25.44 22.26 C23.33 22.03, 21.27 21.75, 19.33 21.42 C17.39 21.08, 15.52 20.7, 13.81 20.27 C12.09 19.84, 10.48 19.36, 9.04 18.85 C7.61 18.34, 6.3 17.79, 5.18 17.21 C4.06 16.64, 3.1 16.03, 2.33 15.4 C1.57 14.78, 0.98 14.12, 0.59 13.47 C0.2 12.82, 0 12.14, 0 11.48 C0 10.81, 0.2 10.14, 0.59 9.48 C0.98 8.83, 1.57 8.18, 2.33 7.55 C3.1 6.93, 4.06 6.31, 5.18 5.74 C6.3 5.16, 7.61 4.61, 9.04 4.1 C10.48 3.59, 12.09 3.11, 13.81 2.69 C15.52 2.26, 17.39 1.87, 19.33 1.54 C21.27 1.21, 23.33 0.92, 25.44 0.69 C27.54 0.46, 29.74 0.29, 31.94 0.17 C34.15 0.06, 36.42 0, 38.66 0 C40.89 0, 43.17 0.06, 45.37 0.17 C47.57 0.29, 49.77 0.46, 51.88 0.69 C53.98 0.92, 56.05 1.21, 57.98 1.54 C59.92 1.87, 61.79 2.26, 63.5 2.69 C65.22 3.11, 66.83 3.59, 68.27 4.1 C69.71 4.61, 71.01 5.16, 72.13 5.74 C73.25 6.31, 74.22 6.93, 74.98 7.55 C75.75 8.18, 76.34 8.83, 76.73 9.48 C77.11 10.14, 77.21 11.14, 77.31 11.48 C77.41 11.81, 77.41 11.14, 77.31 11.48" stroke="none" stroke-width="0" fill="#ced4da"></path><path d="M77.31 11.48 C77.31 12.14, 77.11 12.82, 76.73 13.47 C76.34 14.12, 75.75 14.78, 74.98 15.4 C74.22 16.03, 73.25 16.64, 72.13 17.21 C71.01 17.79, 69.71 18.34, 68.27 18.85 C66.83 19.36, 65.22 19.84, 63.5 20.27 C61.79 20.7, 59.92 21.08, 57.98 21.42 C56.05 21.75, 53.98 22.03, 51.88 22.26 C49.77 22.49, 47.57 22.66, 45.37 22.78 C43.17 22.89, 40.89 22.95, 38.66 22.95 C36.42 22.95, 34.15 22.89, 31.94 22.78 C29.74 22.66, 27.54 22.49, 25.44 22.26 C23.33 22.03, 21.27 21.75, 19.33 21.42 C17.39 21.08, 15.52 20.7, 13.81 20.27 C12.09 19.84, 10.48 19.36, 9.04 18.85 C7.61 18.34, 6.3 17.79, 5.18 17.21 C4.06 16.64, 3.1 16.03, 2.33 15.4 C1.57 14.78, 0.98 14.12, 0.59 13.47 C0.2 12.82, 0 12.14, 0 11.48 C0 10.81, 0.2 10.14, 0.59 9.48 C0.98 8.83, 1.57 8.18, 2.33 7.55 C3.1 6.93, 4.06 6.31, 5.18 5.74 C6.3 5.16, 7.61 4.61, 9.04 4.1 C10.48 3.59, 12.09 3.11, 13.81 2.69 C15.52 2.26, 17.39 1.87, 19.33 1.54 C21.27 1.21, 23.33 0.92, 25.44 0.69 C27.54 0.46, 29.74 0.29, 31.94 0.17 C34.15 0.06, 36.42 0, 38.66 0 C40.89 0, 43.17 0.06, 45.37 0.17 C47.57 0.29, 49.77 0.46, 51.88 0.69 C53.98 0.92, 56.05 1.21, 57.98 1.54 C59.92 1.87, 61.79 2.26, 63.5 2.69 C65.22 3.11, 66.83 3.59, 68.27 4.1 C69.71 4.61, 71.01 5.16, 72.13 5.74 C73.25 6.31, 74.22 6.93, 74.98 7.55 C75.75 8.18, 76.34 8.83, 76.73 9.48 C77.11 10.14, 77.21 11.14, 77.31 11.48 C77.41 11.81, 77.41 11.14, 77.31 11.48" stroke="#ced4da" stroke-width="1" fill="none"></path></g><g stroke-linecap="round" transform="translate(41.10714209649382 10.363922500269098) rotate(0 13.838048427487024 13.838048427486996)"><path d="M2.98 5.24 C2.98 5.24, 2.98 5.24, 2.98 5.24 M2.98 5.24 C2.98 5.24, 2.98 5.24, 2.98 5.24 M0.75 13.9 C5.14 8.85, 9.53 3.8, 11.9 1.07 M0.75 13.9 C3.78 10.42, 6.8 6.94, 11.9 1.07 M1.8 18.79 C5.2 14.88, 8.59 10.98, 17.55 0.68 M1.8 18.79 C7.54 12.19, 13.27 5.59, 17.55 0.68 M3.51 22.92 C8.72 16.92, 13.94 10.92, 21.22 2.55 M3.51 22.92 C10.12 15.32, 16.73 7.72, 21.22 2.55 M6.53 25.55 C12.13 19.1, 17.74 12.64, 24.24 5.17 M6.53 25.55 C10.39 21.1, 14.26 16.65, 24.24 5.17 M10.2 27.42 C14.72 22.22, 19.23 17.03, 26.6 8.55 M10.2 27.42 C15.9 20.86, 21.6 14.31, 26.6 8.55 M15.19 27.78 C18.34 24.15, 21.49 20.53, 27.65 13.44 M15.19 27.78 C18.35 24.14, 21.51 20.5, 27.65 13.44 M5.12 24.59 C5.12 24.59, 5.12 24.59, 5.12 24.59 M5.12 24.59 C5.12 24.59, 5.12 24.59, 5.12 24.59 M14.54 27.48 C10.18 23.69, 5.83 19.91, 0.95 15.67 M14.54 27.48 C10.28 23.78, 6.03 20.08, 0.95 15.67 M19.43 26.43 C14.74 22.35, 10.05 18.28, 0.56 10.03 M19.43 26.43 C12.79 20.66, 6.15 14.89, 0.56 10.03 M22.81 24.07 C18.07 19.95, 13.33 15.83, 2.43 6.35 M22.81 24.07 C15.17 17.43, 7.53 10.79, 2.43 6.35 M25.43 21.05 C19 15.46, 12.57 9.86, 5.05 3.33 M25.43 21.05 C19.59 15.97, 13.74 10.89, 5.05 3.33 M27.3 17.37 C21.32 12.18, 15.35 6.98, 8.43 0.97 M27.3 17.37 C20.69 11.63, 14.09 5.89, 8.43 0.97 M27.66 12.39 C24.62 9.74, 21.57 7.09, 13.32 -0.08 M27.66 12.39 C23.29 8.59, 18.93 4.8, 13.32 -0.08" stroke="#1971c2" stroke-width="0.5" fill="none"></path><path d="M27.68 13.84 C27.68 14.64, 27.6 15.45, 27.47 16.24 C27.33 17.03, 27.12 17.82, 26.84 18.57 C26.57 19.32, 26.22 20.06, 25.82 20.76 C25.42 21.45, 24.95 22.12, 24.44 22.73 C23.92 23.35, 23.35 23.92, 22.73 24.44 C22.12 24.95, 21.45 25.42, 20.76 25.82 C20.06 26.22, 19.32 26.57, 18.57 26.84 C17.82 27.12, 17.03 27.33, 16.24 27.47 C15.45 27.6, 14.64 27.68, 13.84 27.68 C13.04 27.68, 12.22 27.6, 11.44 27.47 C10.65 27.33, 9.86 27.12, 9.11 26.84 C8.35 26.57, 7.61 26.22, 6.92 25.82 C6.23 25.42, 5.56 24.95, 4.94 24.44 C4.33 23.92, 3.75 23.35, 3.24 22.73 C2.72 22.12, 2.25 21.45, 1.85 20.76 C1.45 20.06, 1.11 19.32, 0.83 18.57 C0.56 17.82, 0.35 17.03, 0.21 16.24 C0.07 15.45, 0 14.64, 0 13.84 C0 13.04, 0.07 12.22, 0.21 11.44 C0.35 10.65, 0.56 9.86, 0.83 9.11 C1.11 8.35, 1.45 7.61, 1.85 6.92 C2.25 6.23, 2.72 5.56, 3.24 4.94 C3.75 4.33, 4.33 3.75, 4.94 3.24 C5.56 2.72, 6.23 2.25, 6.92 1.85 C7.61 1.45, 8.35 1.11, 9.11 0.83 C9.86 0.56, 10.65 0.35, 11.44 0.21 C12.22 0.07, 13.04 0, 13.84 0 C14.64 0, 15.45 0.07, 16.24 0.21 C17.03 0.35, 17.82 0.56, 18.57 0.83 C19.32 1.11, 20.06 1.45, 20.76 1.85 C21.45 2.25, 22.12 2.72, 22.73 3.24 C23.35 3.75, 23.92 4.33, 24.44 4.94 C24.95 5.56, 25.42 6.23, 25.82 6.92 C26.22 7.61, 26.57 8.35, 26.84 9.11 C27.12 9.86, 27.33 10.65, 27.47 11.44 C27.6 12.22, 27.64 13.44, 27.68 13.84 C27.71 14.24, 27.71 13.44, 27.68 13.84" stroke="#1971c2" stroke-width="1" fill="none"></path></g><g stroke-linecap="round"><g transform="translate(36.41904080654433 52.413876324213106) rotate(0 12.395126921352471 6.179800901089095)" fill-rule="evenodd"><path d="M0 0 C0 0, 0 0, 0 0 M0 0 C0 0, 0 0, 0 0 M-9.45 16.96 C-1.03 7.28, 7.39 -2.4, 17.45 -13.98 M-9.45 16.96 C-3.07 9.63, 3.3 2.3, 17.45 -13.98 M-11.02 24.87 C-0.99 13.34, 9.03 1.8, 21.13 -12.11 M-11.02 24.87 C-4.3 17.14, 2.43 9.4, 21.13 -12.11 M-7.34 26.74 C2.9 14.96, 13.14 3.18, 23.49 -8.73 M-7.34 26.74 C-0.74 19.14, 5.87 11.54, 23.49 -8.73 M-3.01 27.86 C4.39 19.33, 11.8 10.81, 26.51 -6.11 M-3.01 27.86 C3.64 20.2, 10.29 12.55, 26.51 -6.11 M1.32 28.97 C8.45 20.77, 15.58 12.57, 28.22 -1.97 M1.32 28.97 C10.19 18.76, 19.06 8.55, 28.22 -1.97 M6.3 29.33 C12.92 21.72, 19.54 14.1, 30.58 1.41 M6.3 29.33 C12.35 22.37, 18.4 15.41, 30.58 1.41 M10.63 30.45 C16.13 24.12, 21.62 17.8, 32.28 5.54 M10.63 30.45 C16.19 24.06, 21.74 17.67, 32.28 5.54 M16.28 30.05 C20.74 24.91, 25.21 19.78, 33.99 9.67 M16.28 30.05 C21.52 24.02, 26.76 17.99, 33.99 9.67 M21.27 30.41 C26.17 24.77, 31.07 19.13, 35.04 14.56 M21.27 30.41 C25.41 25.64, 29.56 20.86, 35.04 14.56 M27.56 29.26 C29.95 26.52, 32.33 23.77, 36.09 19.45 M27.56 29.26 C30.25 26.17, 32.93 23.09, 36.09 19.45 M-10.63 25.95 C-10.63 25.95, -10.63 25.95, -10.63 25.95 M-10.63 25.95 C-10.63 25.95, -10.63 25.95, -10.63 25.95 M-1.21 28.83 C-3.78 26.6, -6.34 24.37, -11.02 20.3 M-1.21 28.83 C-5.03 25.51, -8.85 22.19, -11.02 20.3 M5.19 29.09 C0.52 25.03, -4.15 20.98, -9.91 15.97 M5.19 29.09 C-0.03 24.56, -5.25 20.03, -9.91 15.97 M12.34 30.01 C5.83 24.36, -0.67 18.7, -8.04 12.3 M12.34 30.01 C5.45 24.03, -1.43 18.04, -8.04 12.3 M17.23 28.96 C11.47 23.96, 5.72 18.96, -5.42 9.28 M17.23 28.96 C9.72 22.44, 2.22 15.91, -5.42 9.28 M23.62 29.22 C13.02 20, 2.42 10.79, -3.55 5.6 M23.62 29.22 C15.12 21.83, 6.63 14.44, -3.55 5.6 M28.51 28.17 C19.48 20.32, 10.45 12.47, -1.68 1.93 M28.51 28.17 C22.23 22.71, 15.96 17.26, -1.68 1.93 M33.4 27.12 C26.01 20.7, 18.62 14.27, 0.95 -1.09 M33.4 27.12 C26.87 21.44, 20.34 15.77, 0.95 -1.09 M36.02 24.1 C26.93 16.19, 17.83 8.28, 3.57 -4.11 M36.02 24.1 C27.78 16.93, 19.53 9.76, 3.57 -4.11 M36.38 19.11 C24.61 8.88, 12.84 -1.35, 6.95 -6.47 M36.38 19.11 C29.79 13.38, 23.19 7.64, 6.95 -6.47 M34.48 12.16 C25.79 4.6, 17.09 -2.96, 9.58 -9.49 M34.48 12.16 C24.93 3.86, 15.39 -4.44, 9.58 -9.49 M32.58 5.2 C26.86 0.23, 21.14 -4.74, 12.95 -11.85 M32.58 5.2 C25.96 -0.55, 19.34 -6.3, 12.95 -11.85 M26.9 -5.03 C22.96 -8.45, 19.03 -11.88, 16.33 -14.22 M26.9 -5.03 C23.27 -8.19, 19.64 -11.34, 16.33 -14.22" stroke="#1971c2" stroke-width="0.5" fill="none"></path><path d="M0 0 C-1.78 4.32, -16.6 21.58, -10.69 25.9 C-4.77 30.21, 30.35 32.44, 35.48 25.87 C40.6 19.3, 25.97 -9.23, 20.06 -13.54 C14.14 -17.85, 3.34 -2.26, 0 0 M0 0 C-1.78 4.32, -16.6 21.58, -10.69 25.9 C-4.77 30.21, 30.35 32.44, 35.48 25.87 C40.6 19.3, 25.97 -9.23, 20.06 -13.54 C14.14 -17.85, 3.34 -2.26, 0 0" stroke="#1971c2" stroke-width="1" fill="none"></path></g></g><mask></mask><g stroke-linecap="round" transform="translate(94.53229504444437 66.90252398575274) rotate(0 38.65625 11.4765625)"><path d="M77.31 11.48 C77.31 12.14, 77.11 12.82, 76.73 13.47 C76.34 14.12, 75.75 14.78, 74.98 15.4 C74.22 16.03, 73.25 16.64, 72.13 17.21 C71.01 17.79, 69.71 18.34, 68.27 18.85 C66.83 19.36, 65.22 19.84, 63.5 20.27 C61.79 20.7, 59.92 21.08, 57.98 21.42 C56.05 21.75, 53.98 22.03, 51.88 22.26 C49.77 22.49, 47.57 22.66, 45.37 22.78 C43.17 22.89, 40.89 22.95, 38.66 22.95 C36.42 22.95, 34.15 22.89, 31.94 22.78 C29.74 22.66, 27.54 22.49, 25.44 22.26 C23.33 22.03, 21.27 21.75, 19.33 21.42 C17.39 21.08, 15.52 20.7, 13.81 20.27 C12.09 19.84, 10.48 19.36, 9.04 18.85 C7.61 18.34, 6.3 17.79, 5.18 17.21 C4.06 16.64, 3.1 16.03, 2.33 15.4 C1.57 14.78, 0.98 14.12, 0.59 13.47 C0.2 12.82, 0 12.14, 0 11.48 C0 10.81, 0.2 10.14, 0.59 9.48 C0.98 8.83, 1.57 8.18, 2.33 7.55 C3.1 6.93, 4.06 6.31, 5.18 5.74 C6.3 5.16, 7.61 4.61, 9.04 4.1 C10.48 3.59, 12.09 3.11, 13.81 2.69 C15.52 2.26, 17.39 1.87, 19.33 1.54 C21.27 1.21, 23.33 0.92, 25.44 0.69 C27.54 0.46, 29.74 0.29, 31.94 0.17 C34.15 0.06, 36.42 0, 38.66 0 C40.89 0, 43.17 0.06, 45.37 0.17 C47.57 0.29, 49.77 0.46, 51.88 0.69 C53.98 0.92, 56.05 1.21, 57.98 1.54 C59.92 1.87, 61.79 2.26, 63.5 2.69 C65.22 3.11, 66.83 3.59, 68.27 4.1 C69.71 4.61, 71.01 5.16, 72.13 5.74 C73.25 6.31, 74.22 6.93, 74.98 7.55 C75.75 8.18, 76.34 8.83, 76.73 9.48 C77.11 10.14, 77.21 11.14, 77.31 11.48 C77.41 11.81, 77.41 11.14, 77.31 11.48" stroke="none" stroke-width="0" fill="#ced4da"></path><path d="M77.31 11.48 C77.31 12.14, 77.11 12.82, 76.73 13.47 C76.34 14.12, 75.75 14.78, 74.98 15.4 C74.22 16.03, 73.25 16.64, 72.13 17.21 C71.01 17.79, 69.71 18.34, 68.27 18.85 C66.83 19.36, 65.22 19.84, 63.5 20.27 C61.79 20.7, 59.92 21.08, 57.98 21.42 C56.05 21.75, 53.98 22.03, 51.88 22.26 C49.77 22.49, 47.57 22.66, 45.37 22.78 C43.17 22.89, 40.89 22.95, 38.66 22.95 C36.42 22.95, 34.15 22.89, 31.94 22.78 C29.74 22.66, 27.54 22.49, 25.44 22.26 C23.33 22.03, 21.27 21.75, 19.33 21.42 C17.39 21.08, 15.52 20.7, 13.81 20.27 C12.09 19.84, 10.48 19.36, 9.04 18.85 C7.61 18.34, 6.3 17.79, 5.18 17.21 C4.06 16.64, 3.1 16.03, 2.33 15.4 C1.57 14.78, 0.98 14.12, 0.59 13.47 C0.2 12.82, 0 12.14, 0 11.48 C0 10.81, 0.2 10.14, 0.59 9.48 C0.98 8.83, 1.57 8.18, 2.33 7.55 C3.1 6.93, 4.06 6.31, 5.18 5.74 C6.3 5.16, 7.61 4.61, 9.04 4.1 C10.48 3.59, 12.09 3.11, 13.81 2.69 C15.52 2.26, 17.39 1.87, 19.33 1.54 C21.27 1.21, 23.33 0.92, 25.44 0.69 C27.54 0.46, 29.74 0.29, 31.94 0.17 C34.15 0.06, 36.42 0, 38.66 0 C40.89 0, 43.17 0.06, 45.37 0.17 C47.57 0.29, 49.77 0.46, 51.88 0.69 C53.98 0.92, 56.05 1.21, 57.98 1.54 C59.92 1.87, 61.79 2.26, 63.5 2.69 C65.22 3.11, 66.83 3.59, 68.27 4.1 C69.71 4.61, 71.01 5.16, 72.13 5.74 C73.25 6.31, 74.22 6.93, 74.98 7.55 C75.75 8.18, 76.34 8.83, 76.73 9.48 C77.11 10.14, 77.21 11.14, 77.31 11.48 C77.41 11.81, 77.41 11.14, 77.31 11.48" stroke="#ced4da" stroke-width="1" fill="none"></path></g><g stroke-linecap="round" transform="translate(414.3938783787911 66.90252449128707) rotate(0 38.65625 11.4765625)"><path d="M77.31 11.48 C77.31 12.14, 77.11 12.82, 76.73 13.47 C76.34 14.12, 75.75 14.78, 74.98 15.4 C74.22 16.03, 73.25 16.64, 72.13 17.21 C71.01 17.79, 69.71 18.34, 68.27 18.85 C66.83 19.36, 65.22 19.84, 63.5 20.27 C61.79 20.7, 59.92 21.08, 57.98 21.42 C56.05 21.75, 53.98 22.03, 51.88 22.26 C49.77 22.49, 47.57 22.66, 45.37 22.78 C43.17 22.89, 40.89 22.95, 38.66 22.95 C36.42 22.95, 34.15 22.89, 31.94 22.78 C29.74 22.66, 27.54 22.49, 25.44 22.26 C23.33 22.03, 21.27 21.75, 19.33 21.42 C17.39 21.08, 15.52 20.7, 13.81 20.27 C12.09 19.84, 10.48 19.36, 9.04 18.85 C7.61 18.34, 6.3 17.79, 5.18 17.21 C4.06 16.64, 3.1 16.03, 2.33 15.4 C1.57 14.78, 0.98 14.12, 0.59 13.47 C0.2 12.82, 0 12.14, 0 11.48 C0 10.81, 0.2 10.14, 0.59 9.48 C0.98 8.83, 1.57 8.18, 2.33 7.55 C3.1 6.93, 4.06 6.31, 5.18 5.74 C6.3 5.16, 7.61 4.61, 9.04 4.1 C10.48 3.59, 12.09 3.11, 13.81 2.69 C15.52 2.26, 17.39 1.87, 19.33 1.54 C21.27 1.21, 23.33 0.92, 25.44 0.69 C27.54 0.46, 29.74 0.29, 31.94 0.17 C34.15 0.06, 36.42 0, 38.66 0 C40.89 0, 43.17 0.06, 45.37 0.17 C47.57 0.29, 49.77 0.46, 51.88 0.69 C53.98 0.92, 56.05 1.21, 57.98 1.54 C59.92 1.87, 61.79 2.26, 63.5 2.69 C65.22 3.11, 66.83 3.59, 68.27 4.1 C69.71 4.61, 71.01 5.16, 72.13 5.74 C73.25 6.31, 74.22 6.93, 74.98 7.55 C75.75 8.18, 76.34 8.83, 76.73 9.48 C77.11 10.14, 77.21 11.14, 77.31 11.48 C77.41 11.81, 77.41 11.14, 77.31 11.48" stroke="none" stroke-width="0" fill="#ced4da"></path><path d="M77.31 11.48 C77.31 12.14, 77.11 12.82, 76.73 13.47 C76.34 14.12, 75.75 14.78, 74.98 15.4 C74.22 16.03, 73.25 16.64, 72.13 17.21 C71.01 17.79, 69.71 18.34, 68.27 18.85 C66.83 19.36, 65.22 19.84, 63.5 20.27 C61.79 20.7, 59.92 21.08, 57.98 21.42 C56.05 21.75, 53.98 22.03, 51.88 22.26 C49.77 22.49, 47.57 22.66, 45.37 22.78 C43.17 22.89, 40.89 22.95, 38.66 22.95 C36.42 22.95, 34.15 22.89, 31.94 22.78 C29.74 22.66, 27.54 22.49, 25.44 22.26 C23.33 22.03, 21.27 21.75, 19.33 21.42 C17.39 21.08, 15.52 20.7, 13.81 20.27 C12.09 19.84, 10.48 19.36, 9.04 18.85 C7.61 18.34, 6.3 17.79, 5.18 17.21 C4.06 16.64, 3.1 16.03, 2.33 15.4 C1.57 14.78, 0.98 14.12, 0.59 13.47 C0.2 12.82, 0 12.14, 0 11.48 C0 10.81, 0.2 10.14, 0.59 9.48 C0.98 8.83, 1.57 8.18, 2.33 7.55 C3.1 6.93, 4.06 6.31, 5.18 5.74 C6.3 5.16, 7.61 4.61, 9.04 4.1 C10.48 3.59, 12.09 3.11, 13.81 2.69 C15.52 2.26, 17.39 1.87, 19.33 1.54 C21.27 1.21, 23.33 0.92, 25.44 0.69 C27.54 0.46, 29.74 0.29, 31.94 0.17 C34.15 0.06, 36.42 0, 38.66 0 C40.89 0, 43.17 0.06, 45.37 0.17 C47.57 0.29, 49.77 0.46, 51.88 0.69 C53.98 0.92, 56.05 1.21, 57.98 1.54 C59.92 1.87, 61.79 2.26, 63.5 2.69 C65.22 3.11, 66.83 3.59, 68.27 4.1 C69.71 4.61, 71.01 5.16, 72.13 5.74 C73.25 6.31, 74.22 6.93, 74.98 7.55 C75.75 8.18, 76.34 8.83, 76.73 9.48 C77.11 10.14, 77.21 11.14, 77.31 11.48 C77.41 11.81, 77.41 11.14, 77.31 11.48" stroke="#ced4da" stroke-width="1" fill="none"></path></g><g stroke-linecap="round" transform="translate(125.63943730320693 10) rotate(0 13.838048427487024 13.838048427486996)"><path d="M2.98 5.24 C2.98 5.24, 2.98 5.24, 2.98 5.24 M2.98 5.24 C2.98 5.24, 2.98 5.24, 2.98 5.24 M0.75 13.9 C3.69 10.52, 6.63 7.14, 11.9 1.07 M0.75 13.9 C3.83 10.35, 6.92 6.8, 11.9 1.07 M1.8 18.79 C6.26 13.66, 10.72 8.53, 17.55 0.68 M1.8 18.79 C6.91 12.91, 12.02 7.03, 17.55 0.68 M3.51 22.92 C9.97 15.48, 16.44 8.04, 21.22 2.55 M3.51 22.92 C8.94 16.68, 14.37 10.43, 21.22 2.55 M6.53 25.55 C12.44 18.75, 18.35 11.94, 24.24 5.17 M6.53 25.55 C11.58 19.74, 16.63 13.93, 24.24 5.17 M10.2 27.42 C14.45 22.53, 18.7 17.64, 26.6 8.55 M10.2 27.42 C15.34 21.51, 20.47 15.6, 26.6 8.55 M15.19 27.78 C18.13 24.39, 21.08 21, 27.65 13.44 M15.19 27.78 C19.57 22.74, 23.95 17.7, 27.65 13.44 M5.12 24.59 C5.12 24.59, 5.12 24.59, 5.12 24.59 M5.12 24.59 C5.12 24.59, 5.12 24.59, 5.12 24.59 M14.54 27.48 C9.82 23.38, 5.11 19.28, 0.95 15.67 M14.54 27.48 C9.69 23.26, 4.83 19.04, 0.95 15.67 M19.43 26.43 C15.04 22.61, 10.65 18.8, 0.56 10.03 M19.43 26.43 C14.57 22.21, 9.72 17.99, 0.56 10.03 M22.81 24.07 C17.96 19.86, 13.12 15.65, 2.43 6.35 M22.81 24.07 C17.3 19.28, 11.79 14.49, 2.43 6.35 M25.43 21.05 C19.2 15.63, 12.96 10.21, 5.05 3.33 M25.43 21.05 C19.71 16.07, 13.98 11.1, 5.05 3.33 M27.3 17.37 C21.73 12.53, 16.16 7.68, 8.43 0.97 M27.3 17.37 C19.87 10.91, 12.44 4.46, 8.43 0.97 M27.66 12.39 C22.52 7.92, 17.38 3.45, 13.32 -0.08 M27.66 12.39 C24.02 9.22, 20.38 6.06, 13.32 -0.08" stroke="#099268" stroke-width="0.5" fill="none"></path><path d="M27.68 13.84 C27.68 14.64, 27.6 15.45, 27.47 16.24 C27.33 17.03, 27.12 17.82, 26.84 18.57 C26.57 19.32, 26.22 20.06, 25.82 20.76 C25.42 21.45, 24.95 22.12, 24.44 22.73 C23.92 23.35, 23.35 23.92, 22.73 24.44 C22.12 24.95, 21.45 25.42, 20.76 25.82 C20.06 26.22, 19.32 26.57, 18.57 26.84 C17.82 27.12, 17.03 27.33, 16.24 27.47 C15.45 27.6, 14.64 27.68, 13.84 27.68 C13.04 27.68, 12.22 27.6, 11.44 27.47 C10.65 27.33, 9.86 27.12, 9.11 26.84 C8.35 26.57, 7.61 26.22, 6.92 25.82 C6.23 25.42, 5.56 24.95, 4.94 24.44 C4.33 23.92, 3.75 23.35, 3.24 22.73 C2.72 22.12, 2.25 21.45, 1.85 20.76 C1.45 20.06, 1.11 19.32, 0.83 18.57 C0.56 17.82, 0.35 17.03, 0.21 16.24 C0.07 15.45, 0 14.64, 0 13.84 C0 13.04, 0.07 12.22, 0.21 11.44 C0.35 10.65, 0.56 9.86, 0.83 9.11 C1.11 8.35, 1.45 7.61, 1.85 6.92 C2.25 6.23, 2.72 5.56, 3.24 4.94 C3.75 4.33, 4.33 3.75, 4.94 3.24 C5.56 2.72, 6.23 2.25, 6.92 1.85 C7.61 1.45, 8.35 1.11, 9.11 0.83 C9.86 0.56, 10.65 0.35, 11.44 0.21 C12.22 0.07, 13.04 0, 13.84 0 C14.64 0, 15.45 0.07, 16.24 0.21 C17.03 0.35, 17.82 0.56, 18.57 0.83 C19.32 1.11, 20.06 1.45, 20.76 1.85 C21.45 2.25, 22.12 2.72, 22.73 3.24 C23.35 3.75, 23.92 4.33, 24.44 4.94 C24.95 5.56, 25.42 6.23, 25.82 6.92 C26.22 7.61, 26.57 8.35, 26.84 9.11 C27.12 9.86, 27.33 10.65, 27.47 11.44 C27.6 12.22, 27.64 13.44, 27.68 13.84 C27.71 14.24, 27.71 13.44, 27.68 13.84" stroke="#099268" stroke-width="1" fill="none"></path></g><g stroke-linecap="round"><g transform="translate(120.95133601325745 52.04995382394395) rotate(0 12.395126921352471 6.179800901089095)" fill-rule="evenodd"><path d="M0 0 C0 0, 0 0, 0 0 M0 0 C0 0, 0 0, 0 0 M-9.45 16.96 C-2.89 9.42, 3.66 1.88, 17.45 -13.98 M-9.45 16.96 C-2.76 9.27, 3.93 1.57, 17.45 -13.98 M-11.02 24.87 C-1.91 14.39, 7.19 3.92, 21.13 -12.11 M-11.02 24.87 C1.22 10.79, 13.46 -3.29, 21.13 -12.11 M-7.34 26.74 C4.94 12.61, 17.23 -1.52, 23.49 -8.73 M-7.34 26.74 C2.73 15.15, 12.8 3.57, 23.49 -8.73 M-3.01 27.86 C8.2 14.95, 19.42 2.05, 26.51 -6.11 M-3.01 27.86 C3.69 20.14, 10.4 12.42, 26.51 -6.11 M1.32 28.97 C8.74 20.43, 16.17 11.89, 28.22 -1.97 M1.32 28.97 C6.7 22.78, 12.08 16.59, 28.22 -1.97 M6.3 29.33 C15.36 18.91, 24.42 8.49, 30.58 1.41 M6.3 29.33 C12.59 22.1, 18.88 14.86, 30.58 1.41 M10.63 30.45 C18.82 21.03, 27 11.62, 32.28 5.54 M10.63 30.45 C15.67 24.66, 20.7 18.87, 32.28 5.54 M16.28 30.05 C23.32 21.95, 30.36 13.86, 33.99 9.67 M16.28 30.05 C21.27 24.31, 26.26 18.57, 33.99 9.67 M21.27 30.41 C25.69 25.32, 30.11 20.23, 35.04 14.56 M21.27 30.41 C24.31 26.9, 27.36 23.4, 35.04 14.56 M27.56 29.26 C29.29 27.28, 31.01 25.29, 36.09 19.45 M27.56 29.26 C29.57 26.95, 31.58 24.64, 36.09 19.45 M-10.63 25.95 C-10.63 25.95, -10.63 25.95, -10.63 25.95 M-10.63 25.95 C-10.63 25.95, -10.63 25.95, -10.63 25.95 M-1.21 28.83 C-4.68 25.82, -8.14 22.81, -11.02 20.3 M-1.21 28.83 C-5.08 25.47, -8.96 22.1, -11.02 20.3 M5.19 29.09 C-0.52 24.14, -6.22 19.18, -9.91 15.97 M5.19 29.09 C1.68 26.05, -1.83 23, -9.91 15.97 M12.34 30.01 C7.62 25.91, 2.9 21.81, -8.04 12.3 M12.34 30.01 C4.84 23.5, -2.65 16.98, -8.04 12.3 M17.23 28.96 C10.35 22.99, 3.48 17.01, -5.42 9.28 M17.23 28.96 C12.21 24.6, 7.19 20.23, -5.42 9.28 M23.62 29.22 C17.27 23.7, 10.92 18.18, -3.55 5.6 M23.62 29.22 C15.53 22.18, 7.43 15.14, -3.55 5.6 M28.51 28.17 C19.61 20.43, 10.71 12.69, -1.68 1.93 M28.51 28.17 C19.37 20.22, 10.23 12.28, -1.68 1.93 M33.4 27.12 C21.31 16.61, 9.22 6.1, 0.95 -1.09 M33.4 27.12 C24.86 19.7, 16.33 12.28, 0.95 -1.09 M36.02 24.1 C24.76 14.31, 13.49 4.51, 3.57 -4.11 M36.02 24.1 C28.07 17.18, 20.11 10.26, 3.57 -4.11 M36.38 19.11 C28.27 12.06, 20.16 5.01, 6.95 -6.47 M36.38 19.11 C28.3 12.09, 20.22 5.07, 6.95 -6.47 M34.48 12.16 C25.23 4.12, 15.99 -3.92, 9.58 -9.49 M34.48 12.16 C28.18 6.68, 21.88 1.2, 9.58 -9.49 M32.58 5.2 C24.99 -1.39, 17.41 -7.98, 12.95 -11.85 M32.58 5.2 C27.11 0.45, 21.64 -4.31, 12.95 -11.85 M26.9 -5.03 C22.74 -8.64, 18.59 -12.26, 16.33 -14.22 M26.9 -5.03 C23.05 -8.38, 19.2 -11.73, 16.33 -14.22" stroke="#099268" stroke-width="0.5" fill="none"></path><path d="M0 0 C-1.78 4.32, -16.6 21.58, -10.69 25.9 C-4.77 30.21, 30.35 32.44, 35.48 25.87 C40.6 19.3, 25.97 -9.23, 20.06 -13.54 C14.14 -17.85, 3.34 -2.26, 0 0 M0 0 C-1.78 4.32, -16.6 21.58, -10.69 25.9 C-4.77 30.21, 30.35 32.44, 35.48 25.87 C40.6 19.3, 25.97 -9.23, 20.06 -13.54 C14.14 -17.85, 3.34 -2.26, 0 0" stroke="#099268" stroke-width="1" fill="none"></path></g></g><mask></mask><g stroke-linecap="round" transform="translate(445.50102011102933 10.000000000000114) rotate(0 13.838048427487024 13.838048427486996)"><path d="M2.98 5.24 C2.98 5.24, 2.98 5.24, 2.98 5.24 M2.98 5.24 C2.98 5.24, 2.98 5.24, 2.98 5.24 M0.75 13.9 C4.9 9.13, 9.04 4.36, 11.9 1.07 M0.75 13.9 C3.09 11.21, 5.44 8.51, 11.9 1.07 M1.8 18.79 C7.45 12.29, 13.11 5.78, 17.55 0.68 M1.8 18.79 C6.95 12.86, 12.11 6.93, 17.55 0.68 M3.51 22.92 C10.46 14.93, 17.41 6.93, 21.22 2.55 M3.51 22.92 C8.12 17.61, 12.74 12.3, 21.22 2.55 M6.53 25.55 C11.87 19.4, 17.21 13.26, 24.24 5.17 M6.53 25.55 C13.49 17.53, 20.46 9.52, 24.24 5.17 M10.2 27.42 C15.3 21.56, 20.39 15.69, 26.6 8.55 M10.2 27.42 C15.91 20.85, 21.62 14.28, 26.6 8.55 M15.19 27.78 C17.93 24.62, 20.68 21.47, 27.65 13.44 M15.19 27.78 C19.01 23.38, 22.83 18.98, 27.65 13.44 M5.12 24.59 C5.12 24.59, 5.12 24.59, 5.12 24.59 M5.12 24.59 C5.12 24.59, 5.12 24.59, 5.12 24.59 M14.54 27.48 C10.35 23.84, 6.16 20.2, 0.95 15.67 M14.54 27.48 C10.96 24.37, 7.38 21.25, 0.95 15.67 M19.43 26.43 C11.9 19.89, 4.38 13.35, 0.56 10.03 M19.43 26.43 C14.04 21.75, 8.66 17.07, 0.56 10.03 M22.81 24.07 C15.15 17.42, 7.5 10.76, 2.43 6.35 M22.81 24.07 C14.76 17.07, 6.72 10.08, 2.43 6.35 M25.43 21.05 C20.6 16.85, 15.76 12.65, 5.05 3.33 M25.43 21.05 C18.38 14.92, 11.33 8.79, 5.05 3.33 M27.3 17.37 C22.65 13.33, 18 9.29, 8.43 0.97 M27.3 17.37 C20.41 11.39, 13.53 5.4, 8.43 0.97 M27.66 12.39 C23.21 8.52, 18.77 4.66, 13.32 -0.08 M27.66 12.39 C23.84 9.07, 20.02 5.75, 13.32 -0.08" stroke="#c2255c" stroke-width="0.5" fill="none"></path><path d="M27.68 13.84 C27.68 14.64, 27.6 15.45, 27.47 16.24 C27.33 17.03, 27.12 17.82, 26.84 18.57 C26.57 19.32, 26.22 20.06, 25.82 20.76 C25.42 21.45, 24.95 22.12, 24.44 22.73 C23.92 23.35, 23.35 23.92, 22.73 24.44 C22.12 24.95, 21.45 25.42, 20.76 25.82 C20.06 26.22, 19.32 26.57, 18.57 26.84 C17.82 27.12, 17.03 27.33, 16.24 27.47 C15.45 27.6, 14.64 27.68, 13.84 27.68 C13.04 27.68, 12.22 27.6, 11.44 27.47 C10.65 27.33, 9.86 27.12, 9.11 26.84 C8.35 26.57, 7.61 26.22, 6.92 25.82 C6.23 25.42, 5.56 24.95, 4.94 24.44 C4.33 23.92, 3.75 23.35, 3.24 22.73 C2.72 22.12, 2.25 21.45, 1.85 20.76 C1.45 20.06, 1.11 19.32, 0.83 18.57 C0.56 17.82, 0.35 17.03, 0.21 16.24 C0.07 15.45, 0 14.64, 0 13.84 C0 13.04, 0.07 12.22, 0.21 11.44 C0.35 10.65, 0.56 9.86, 0.83 9.11 C1.11 8.35, 1.45 7.61, 1.85 6.92 C2.25 6.23, 2.72 5.56, 3.24 4.94 C3.75 4.33, 4.33 3.75, 4.94 3.24 C5.56 2.72, 6.23 2.25, 6.92 1.85 C7.61 1.45, 8.35 1.11, 9.11 0.83 C9.86 0.56, 10.65 0.35, 11.44 0.21 C12.22 0.07, 13.04 0, 13.84 0 C14.64 0, 15.45 0.07, 16.24 0.21 C17.03 0.35, 17.82 0.56, 18.57 0.83 C19.32 1.11, 20.06 1.45, 20.76 1.85 C21.45 2.25, 22.12 2.72, 22.73 3.24 C23.35 3.75, 23.92 4.33, 24.44 4.94 C24.95 5.56, 25.42 6.23, 25.82 6.92 C26.22 7.61, 26.57 8.35, 26.84 9.11 C27.12 9.86, 27.33 10.65, 27.47 11.44 C27.6 12.22, 27.64 13.44, 27.68 13.84 C27.71 14.24, 27.71 13.44, 27.68 13.84" stroke="#c2255c" stroke-width="1" fill="none"></path></g><g stroke-linecap="round"><g transform="translate(440.81291882107996 52.04995382394384) rotate(0 12.395126921352471 6.179800901089095)" fill-rule="evenodd"><path d="M0 0 C0 0, 0 0, 0 0 M0 0 C0 0, 0 0, 0 0 M-9.45 16.96 C0.37 5.67, 10.2 -5.63, 17.45 -13.98 M-9.45 16.96 C-1.2 7.48, 7.04 -2.01, 17.45 -13.98 M-11.02 24.87 C-0.29 12.53, 10.44 0.18, 21.13 -12.11 M-11.02 24.87 C-1.85 14.32, 7.32 3.78, 21.13 -12.11 M-7.34 26.74 C0.64 17.55, 8.63 8.37, 23.49 -8.73 M-7.34 26.74 C2.31 15.63, 11.97 4.52, 23.49 -8.73 M-3.01 27.86 C3.96 19.83, 10.94 11.8, 26.51 -6.11 M-3.01 27.86 C7.36 15.92, 17.74 3.98, 26.51 -6.11 M1.32 28.97 C11.23 17.57, 21.14 6.16, 28.22 -1.97 M1.32 28.97 C11.76 16.96, 22.19 4.95, 28.22 -1.97 M6.3 29.33 C14.73 19.64, 23.15 9.95, 30.58 1.41 M6.3 29.33 C14.97 19.36, 23.64 9.38, 30.58 1.41 M10.63 30.45 C15.67 24.65, 20.71 18.86, 32.28 5.54 M10.63 30.45 C16.2 24.04, 21.77 17.63, 32.28 5.54 M16.28 30.05 C20.49 25.21, 24.69 20.37, 33.99 9.67 M16.28 30.05 C21.07 24.54, 25.86 19.03, 33.99 9.67 M21.27 30.41 C25.48 25.56, 29.69 20.72, 35.04 14.56 M21.27 30.41 C25.13 25.96, 29 21.51, 35.04 14.56 M27.56 29.26 C30.08 26.36, 32.6 23.47, 36.09 19.45 M27.56 29.26 C30.92 25.4, 34.28 21.54, 36.09 19.45 M-10.63 25.95 C-10.63 25.95, -10.63 25.95, -10.63 25.95 M-10.63 25.95 C-10.63 25.95, -10.63 25.95, -10.63 25.95 M-1.21 28.83 C-4.38 26.07, -7.56 23.32, -11.02 20.3 M-1.21 28.83 C-4.78 25.73, -8.35 22.62, -11.02 20.3 M5.19 29.09 C1.02 25.47, -3.14 21.85, -9.91 15.97 M5.19 29.09 C2.09 26.41, -1 23.72, -9.91 15.97 M12.34 30.01 C5.41 23.99, -1.52 17.96, -8.04 12.3 M12.34 30.01 C5.16 23.77, -2.02 17.53, -8.04 12.3 M17.23 28.96 C11.34 23.85, 5.46 18.73, -5.42 9.28 M17.23 28.96 C8.23 21.14, -0.78 13.31, -5.42 9.28 M23.62 29.22 C13.3 20.25, 2.98 11.28, -3.55 5.6 M23.62 29.22 C16.44 22.97, 9.25 16.73, -3.55 5.6 M28.51 28.17 C21.65 22.2, 14.79 16.24, -1.68 1.93 M28.51 28.17 C18.56 19.52, 8.6 10.86, -1.68 1.93 M33.4 27.12 C23.9 18.86, 14.41 10.61, 0.95 -1.09 M33.4 27.12 C22.35 17.51, 11.3 7.91, 0.95 -1.09 M36.02 24.1 C29.18 18.15, 22.33 12.2, 3.57 -4.11 M36.02 24.1 C25.2 14.69, 14.37 5.28, 3.57 -4.11 M36.38 19.11 C26.27 10.32, 16.15 1.53, 6.95 -6.47 M36.38 19.11 C25.95 10.04, 15.51 0.97, 6.95 -6.47 M34.48 12.16 C25.54 4.38, 16.59 -3.39, 9.58 -9.49 M34.48 12.16 C25.12 4.02, 15.77 -4.11, 9.58 -9.49 M32.58 5.2 C28.37 1.55, 24.17 -2.11, 12.95 -11.85 M32.58 5.2 C28.35 1.53, 24.12 -2.15, 12.95 -11.85 M26.9 -5.03 C23.35 -8.12, 19.81 -11.2, 16.33 -14.22 M26.9 -5.03 C24.18 -7.39, 21.47 -9.75, 16.33 -14.22" stroke="#c2255c" stroke-width="0.5" fill="none"></path><path d="M0 0 C-1.78 4.32, -16.6 21.58, -10.69 25.9 C-4.77 30.21, 30.35 32.44, 35.48 25.87 C40.6 19.3, 25.97 -9.23, 20.06 -13.54 C14.14 -17.85, 3.34 -2.26, 0 0 M0 0 C-1.78 4.32, -16.6 21.58, -10.69 25.9 C-4.77 30.21, 30.35 32.44, 35.48 25.87 C40.6 19.3, 25.97 -9.23, 20.06 -13.54 C14.14 -17.85, 3.34 -2.26, 0 0" stroke="#c2255c" stroke-width="1" fill="none"></path></g></g><mask></mask><g transform="translate(28.656250191025265 89.85564832501245) rotate(0 20 13.5)"><text x="0" y="20.08" font-family="Nunito, Segoe UI Emoji" font-size="20px" fill="#343a40" text-anchor="start" style="white-space: pre;" direction="ltr" dominant-baseline="alphabetic">ここ</text></g><g transform="translate(117.49732670260823 89.85564832501245) rotate(0 20 13.5)"><text x="0" y="20.08" font-family="Nunito, Segoe UI Emoji" font-size="20px" fill="#343a40" text-anchor="start" style="white-space: pre;" direction="ltr" dominant-baseline="alphabetic">そこ</text></g><g transform="translate(423.0501278051578 89.85564832501245) rotate(0 30 13.5)"><text x="0" y="20.08" font-family="Nunito, Segoe UI Emoji" font-size="20px" fill="#343a40" text-anchor="start" style="white-space: pre;" direction="ltr" dominant-baseline="alphabetic">あそこ</text></g></svg>